<?xml version="1.0" encoding="UTF-8" standalone="no"?>
<svg
   xmlns:dc="http://purl.org/dc/elements/1.1/"
   xmlns:cc="http://creativecommons.org/ns#"
   xmlns:rdf="http://www.w3.org/1999/02/22-rdf-syntax-ns#"
   xmlns:svg="http://www.w3.org/2000/svg"
   xmlns="http://www.w3.org/2000/svg"
   xmlns:sodipodi="http://sodipodi.sourceforge.net/DTD/sodipodi-0.dtd"
   xmlns:inkscape="http://www.inkscape.org/namespaces/inkscape"
   width="200"
   height="200"
   fill="#000000"
   version="1.1"
   x="0px"
   y="0px"
   viewBox="0 0 100 100"
   enable-background="new 0 0 100 100"
   xml:space="preserve"
   id="svg4264"
   inkscape:version="0.91+devel r14560 custom"
   sodipodi:docname="asset-hub.svg"
   inkscape:export-filename="/Users/sebastianestevez/Downloads/asset-hub.png"
   inkscape:export-xdpi="16.823807"
   inkscape:export-ydpi="16.823807"><metadata
     id="metadata4270"><rdf:RDF><cc:Work
         rdf:about=""><dc:format>image/svg+xml</dc:format><dc:type
           rdf:resource="http://purl.org/dc/dcmitype/StillImage" /><dc:title></dc:title></cc:Work></rdf:RDF></metadata><defs
     id="defs4268" /><sodipodi:namedview
     pagecolor="#ffffff"
     bordercolor="#666666"
     borderopacity="1"
     objecttolerance="10"
     gridtolerance="10"
     guidetolerance="10"
     inkscape:pageopacity="0"
     inkscape:pageshadow="2"
     inkscape:window-width="1440"
     inkscape:window-height="851"
     id="namedview4266"
     showgrid="false"
     inkscape:zoom="2.8284271"
     inkscape:cx="100.97364"
     inkscape:cy="100.70092"
     inkscape:window-x="0"
     inkscape:window-y="74"
     inkscape:window-maximized="1"
     inkscape:current-layer="svg4264"
     inkscape:pagecheckerboard="true"
     borderlayer="false"
     showguides="true" /><path
     d="m 34.9925,88.7775 c 0,4.5 -3.6,8.1 -8.1,8.1 -4.5,0 -8.1,-3.6 -8.1,-8.1 0,-4.5 3.6,-8.1 8.1,-8.1 1.4,0 2.7,0.4 3.9,1 0.198006,0.113021 0.289356,0.166035 0.5,0.3 v 0 c 2.2,1.4 3.7,3.9 3.7,6.8 z"
     id="path4412"
     style="fill:#ca5f14;fill-opacity:1"
     inkscape:connector-curvature="0"
     sodipodi:nodetypes="sssscccs" /><path
     d="m 25.472324,46.582971 c 0,-3.3 -2.7,-6.1 -6.1,-6.1 -3.3,0 -6.1,2.7 -6.1,6.1 0,3.3 2.7,6.1 6.1,6.1 3.4,0 6.1,-2.8 6.1,-6.1 z"
     id="path4410"
     style="fill:#ca5f14;fill-opacity:1"
     inkscape:connector-curvature="0" /><path
     d="m 36.116446,17.860996 c 2.6,-1.1 4.4,-3.6 4.4,-6.5 0,-3.8999999 -3.2,-7.0999995 -7.1,-7.0999995 -3.9,0 -7.1,3.1999996 -7.1,7.0999995 0,3.9 3.1,7 7,7 0.8,0 2.1,-0.2 2.8,-0.5"
     id="path4404"
     inkscape:connector-curvature="0"
     style="fill:#310459;fill-opacity:1" /><path
     d="m 79.6,5.8 c -2.8,0 -5.1,2.3 -5.1,5.1 0,1.5 0.655639,2.82218 1.655639,3.82218 0.07031,0.137742 0.116978,0.119826 0.144361,0.17782 0.9,0.7 2,1.2 3.2,1.2 2.8,0 5.1,-2.3 5.1,-5.1 0,-2.8 -2.2,-5.2 -5,-5.2 z"
     id="path4402"
     style="fill:#310459;fill-opacity:1"
     inkscape:connector-curvature="0"
     sodipodi:nodetypes="ssccsss" /><path
     d="m 78.245116,33.554884 c -2.2,0 -4,1.8 -4,4 0,2.2 1.8,4 4,4 2.2,0 4,-1.8 4,-4 0.1,-2.2 -1.8,-4 -4,-4 z"
     id="path4400"
     style="fill:#ca5f14;fill-opacity:1"
     inkscape:connector-curvature="0" /><path
     d="m 65.8725,62.5375 c -1.5,0 -2.9,0.5 -4.1,1.3 -0.16686,0.09941 -0.414629,0.305706 -0.5,0.4 -1.6,1.3 -2.5,3.2 -2.5,5.4 0,3.9 3.2,7.1 7.1,7.1 3.9,0 7.1,-3.2 7.1,-7.1 0,-3.9 -3.2,-7.1 -7.1,-7.1 z"
     id="path4398"
     style="fill:#310459;fill-opacity:1"
     inkscape:connector-curvature="0"
     sodipodi:nodetypes="sccssss" /><path
     d="m 62.182269,47.585173 c 0,-6.1 -5,-11.1 -11.1,-11.1 -1.3,0 -2.6,0.2 -3.7,0.7 h -0.1 c 0,0 -0.1,0 -0.1,0.1 -4.2,1.6 -7.1,5.6 -7.1,10.4 0,4.2 2.4,7.9 5.9,9.8 0.165379,0.07729 0.339544,0.179993 0.477903,0.222097 1.5,0.7 3.122097,1.077903 4.822097,1.077903 6,-0.1 10.9,-5.1 10.9,-11.2 z"
     id="path4396"
     style="fill:#007a97;fill-opacity:1"
     inkscape:connector-curvature="0"
     sodipodi:nodetypes="sscccscccs" /><path
     style="fill:none;fill-rule:evenodd;stroke:#000000;stroke-width:2.5;stroke-linecap:round;stroke-linejoin:miter;stroke-miterlimit:3;stroke-dasharray:2.5, 5;stroke-dashoffset:6.25;stroke-opacity:1"
     d="M 36.545676,19.102751 45.04327,37.575745"
     id="path4839"
     inkscape:connector-curvature="0" /><path
     style="fill:none;fill-rule:evenodd;stroke:#000000;stroke-width:2.5;stroke-linecap:round;stroke-linejoin:miter;stroke-opacity:1;stroke-miterlimit:4;stroke-dasharray:2.5,5;stroke-dashoffset:5.5"
     d="M 75.8,15.3 58.02357,38.072705"
     id="path4841"
     inkscape:connector-curvature="0" /><path
     style="fill:none;fill-rule:evenodd;stroke:#000000;stroke-width:2.5;stroke-linecap:round;stroke-linejoin:miter;stroke-opacity:1;stroke-miterlimit:4;stroke-dasharray:2.5,5;stroke-dashoffset:6.5"
     d="m 62.107905,43.412798 11.79423,-4.140527"
     id="path4845"
     inkscape:connector-curvature="0" /><path
     style="fill:none;fill-rule:evenodd;stroke:#000000;stroke-width:2.5;stroke-linecap:round;stroke-linejoin:miter;stroke-opacity:1;stroke-miterlimit:4;stroke-dasharray:2.5,5;stroke-dashoffset:5.25"
     d="M 61.2725,63.7375 57.214555,57.841905"
     id="path4847"
     inkscape:connector-curvature="0" /><path
     style="fill:none;fill-rule:evenodd;stroke:#000000;stroke-width:2.5;stroke-linecap:round;stroke-linejoin:miter;stroke-opacity:1;stroke-miterlimit:4;stroke-dasharray:2.5,5;stroke-dashoffset:5.75"
     d="M 45.982269,57.485175 30.7925,81.6775"
     id="path4849"
     inkscape:connector-curvature="0" /><path
     style="fill:none;fill-rule:evenodd;stroke:#000000;stroke-width:2.5;stroke-linecap:round;stroke-linejoin:miter;stroke-miterlimit:4;stroke-dasharray:2.5, 5;stroke-dashoffset:6.25;stroke-opacity:1"
     d="m 26.808139,46.856745 11.545242,0.343002"
     id="path4851"
     inkscape:connector-curvature="0" /><rect
     style="opacity:1;fill:#ffffff;fill-opacity:0;stroke:#ffffff;stroke-width:2.68710494;stroke-linecap:round;stroke-linejoin:miter;stroke-miterlimit:4;stroke-dasharray:none;stroke-opacity:0"
     id="rect4231"
     width="97.312897"
     height="97.312897"
     x="1.3713557"
     y="-0.098467574"
     ry="0.18020907" /></svg>